<svg width="1920" height="1080" viewBox="0 0 1920 1080" fill="none" xmlns="http://www.w3.org/2000/svg">
<g clip-path="url(#clip0_20_14)">
<rect width="1920" height="1080" fill="#190039"/>
<mask id="mask0_20_14" style="mask-type:alpha" maskUnits="userSpaceOnUse" x="0" y="0" width="1920" height="1080">
<rect width="1920" height="1080" fill="#190039"/>
</mask>
<g mask="url(#mask0_20_14)">
<g filter="url(#filter0_f_20_14)">
<path fill-rule="evenodd" clip-rule="evenodd" d="M1065.4 -380.875C1162.47 -390.848 1246.16 -331.7 1341.15 -314.658C1446.91 -295.683 1590.69 -332.041 1660.79 -274.055C1735.73 -212.059 1654.86 -112.912 1680.35 -34.041C1699.69 25.7998 1797.02 70.0367 1791.8 131.249C1786.4 194.559 1675 231.915 1652.44 293.385C1629.07 357.093 1681.27 424.655 1660.61 488.81C1637.06 561.942 1627.55 667.843 1524.46 690.785C1405.36 717.288 1301.72 610.717 1178.41 596.119C1100.17 586.856 1024.71 621.804 945.33 622.225C858.313 622.687 774.051 610.57 688.735 598.716C579.718 583.568 460.487 585.06 368.294 542.048C274.141 498.121 141.111 431.513 166.06 354.863C199.563 251.932 407.552 226.086 498.675 141.487C541.03 102.164 532.08 47.4558 548.549 -0.242816C568.299 -57.4457 556.779 -122.788 606.406 -170.536C655.515 -217.785 749.522 -228.942 819.649 -261.078C903.91 -299.692 965.428 -370.604 1065.4 -380.875Z" fill="#7553CC"/>
<path fill-rule="evenodd" clip-rule="evenodd" d="M1861.11 10.1068C1994.31 -0.600156 2108.5 68.6988 2206.65 117.551C2294.37 161.209 2321.41 228.672 2398.56 277.603C2465.49 320.056 2576.75 339.484 2631.04 386.725C2686.01 434.564 2728.52 492.975 2709.31 548.036C2689.49 604.856 2584.27 641.02 2525.36 689.665C2479.77 727.3 2441.13 765.849 2398.69 804.5C2352.06 846.97 2304.4 887.705 2260.4 930.954C2189.15 1000.99 2177.34 1094.45 2055.97 1141.37C1947.42 1183.34 1792.74 1165.51 1658.35 1163.71C1512.37 1161.75 1347 1175.53 1228.62 1130.28C1108.53 1084.37 1024.01 1001.06 1027.83 922.684C1032.22 832.496 1264.71 771.493 1250.47 681.591C1239.75 613.955 1009.2 610.14 968.128 545.84C932.597 490.212 1023.08 433.555 1056.25 377.521C1093.42 314.74 1079.61 233.317 1177.26 192.606C1277.38 150.862 1440.15 200.385 1553.96 170.013C1683.29 135.498 1717.9 21.6172 1861.11 10.1068Z" fill="#E55A63"/>
<path fill-rule="evenodd" clip-rule="evenodd" d="M764.158 541.332C873.146 549.379 940.671 638.027 1042.27 668.729C1142.47 699.008 1305.2 648.669 1356.12 720.216C1418.76 808.224 1228.51 922.838 1286.92 1012.47C1344.76 1101.23 1574.52 1059.49 1634.53 1147.43C1683.01 1218.49 1599.65 1310.37 1532.39 1372.21C1465.82 1433.43 1358.72 1459.66 1261.68 1490.25C1187.96 1513.49 1089.52 1490.46 1030.02 1530.57C953.52 1582.15 972.435 1685.49 895.775 1736.93C821.221 1786.96 703.225 1844.02 614.506 1809.41C509.419 1768.41 531.112 1643.83 466.302 1569.39C428.077 1525.48 348.036 1509.26 313.508 1463.66C279.508 1418.75 283.697 1364.09 272.296 1313.14C261.747 1266 268.561 1217.41 248.265 1172.1C215.617 1099.22 74.8384 1036 116.711 965.832C157.462 897.545 343.291 970.555 403.961 911.199C482.652 834.214 387.741 704.377 464.03 626.04C527.672 560.689 656.887 533.413 764.158 541.332Z" fill="#D0CB5A"/>
<path fill-rule="evenodd" clip-rule="evenodd" d="M114.743 -231.998C213.778 -231.321 260.49 -120.148 323.834 -55.3337C370.449 -7.63782 398.637 49.3922 439.798 100.596C473.447 142.456 499.011 190.274 546.178 221.264C628.642 275.446 791.794 262.772 817.443 348.722C840.54 426.12 701.205 471.568 638.625 531.055C594.105 573.377 540.993 607.036 499.148 651.291C458.543 694.236 424.404 740.078 394.677 789.055C342.681 874.718 345.301 990.633 256.71 1050.71C179.872 1102.82 41.083 1133.84 -33.5316 1079.44C-133.644 1006.45 -42.7777 831.557 -143.359 759.038C-224.383 700.622 -358.94 803.674 -458.755 772.86C-553.509 743.609 -699.697 678.195 -674.023 595.217C-637.035 475.675 -410.453 473.731 -333.726 368.778C-296.33 317.624 -377.024 254.263 -380.78 194.096C-385.667 115.8 -422.996 18.1086 -359.142 -38.3929C-297.485 -92.95 -175.826 -25.4434 -95.6514 -58.1987C-6.79459 -94.501 16.1878 -232.671 114.743 -231.998Z" fill="#41B5E0"/>
</g>
</g>
</g>
<defs>
<filter id="filter0_f_20_14" x="-1077" y="-782" width="4191" height="3002" filterUnits="userSpaceOnUse" color-interpolation-filters="sRGB">
<feFlood flood-opacity="0" result="BackgroundImageFix"/>
<feBlend mode="normal" in="SourceGraphic" in2="BackgroundImageFix" result="shape"/>
<feGaussianBlur stdDeviation="200" result="effect1_foregroundBlur_20_14"/>
</filter>
<clipPath id="clip0_20_14">
<rect width="1920" height="1080" fill="white"/>
</clipPath>
</defs>
</svg>
